<mxfile host="65bd71144e">
    <diagram id="n3ivC1zX6Ycf6Me1RKbi" name="Page-1">
        <mxGraphModel dx="1119" dy="826" grid="1" gridSize="10" guides="1" tooltips="1" connect="1" arrows="1" fold="1" page="1" pageScale="1" pageWidth="827" pageHeight="1169" math="0" shadow="0">
            <root>
                <mxCell id="0"/>
                <mxCell id="1" parent="0"/>
                <mxCell id="42" value="" style="rounded=0;whiteSpace=wrap;html=1;fontSize=30;fontColor=#FF6666;" parent="1" vertex="1">
                    <mxGeometry width="700" height="320" as="geometry"/>
                </mxCell>
                <mxCell id="29" value="5" style="html=1;exitX=1;exitY=0.5;exitDx=0;exitDy=0;entryX=0.5;entryY=0;entryDx=0;entryDy=0;elbow=vertical;" parent="1" source="18" target="19" edge="1">
                    <mxGeometry x="-0.3333" y="10" relative="1" as="geometry">
                        <Array as="points">
                            <mxPoint x="160" y="140"/>
                        </Array>
                        <mxPoint as="offset"/>
                    </mxGeometry>
                </mxCell>
                <mxCell id="18" value="ER-Force = 0" style="text;html=1;align=center;verticalAlign=middle;whiteSpace=wrap;rounded=0;fillColor=#ffe6cc;strokeColor=#d79b00;" parent="1" vertex="1">
                    <mxGeometry x="40" y="120" width="80" height="40" as="geometry"/>
                </mxCell>
                <mxCell id="30" value="3" style="edgeStyle=none;html=1;exitX=1;exitY=0.5;exitDx=0;exitDy=0;entryX=0.5;entryY=0;entryDx=0;entryDy=0;elbow=vertical;" parent="1" source="19" target="20" edge="1">
                    <mxGeometry x="-0.3333" y="10" relative="1" as="geometry">
                        <Array as="points">
                            <mxPoint x="240" y="180"/>
                        </Array>
                        <mxPoint as="offset"/>
                    </mxGeometry>
                </mxCell>
                <mxCell id="19" value="LUHBots = -5" style="text;html=1;strokeColor=#d6b656;fillColor=#fff2cc;align=center;verticalAlign=middle;whiteSpace=wrap;rounded=0;" parent="1" vertex="1">
                    <mxGeometry x="120" y="160" width="80" height="40" as="geometry"/>
                </mxCell>
                <mxCell id="32" value="12" style="edgeStyle=none;html=1;exitX=1;exitY=0.5;exitDx=0;exitDy=0;entryX=0.5;entryY=1;entryDx=0;entryDy=0;elbow=vertical;" parent="1" source="20" target="31" edge="1">
                    <mxGeometry x="-0.3333" y="-10" relative="1" as="geometry">
                        <Array as="points">
                            <mxPoint x="320" y="220"/>
                        </Array>
                        <mxPoint as="offset"/>
                    </mxGeometry>
                </mxCell>
                <mxCell id="20" value="KIKS = -8" style="text;html=1;strokeColor=#d79b00;fillColor=#ffe6cc;align=center;verticalAlign=middle;whiteSpace=wrap;rounded=0;" parent="1" vertex="1">
                    <mxGeometry x="200" y="200" width="80" height="40" as="geometry"/>
                </mxCell>
                <mxCell id="34" value="47" style="edgeStyle=none;html=1;exitX=1;exitY=0.5;exitDx=0;exitDy=0;entryX=0.5;entryY=1;entryDx=0;entryDy=0;elbow=vertical;" parent="1" source="31" target="33" edge="1">
                    <mxGeometry x="-0.3333" y="-10" relative="1" as="geometry">
                        <Array as="points">
                            <mxPoint x="400" y="180"/>
                        </Array>
                        <mxPoint as="offset"/>
                    </mxGeometry>
                </mxCell>
                <mxCell id="31" value="RTT = 4" style="text;html=1;strokeColor=#d6b656;fillColor=#fff2cc;align=center;verticalAlign=middle;whiteSpace=wrap;rounded=0;" parent="1" vertex="1">
                    <mxGeometry x="280" y="160" width="80" height="40" as="geometry"/>
                </mxCell>
                <mxCell id="36" value="64" style="edgeStyle=none;html=1;exitX=1;exitY=0.5;exitDx=0;exitDy=0;entryX=0.5;entryY=0;entryDx=0;entryDy=0;elbow=vertical;" parent="1" source="33" target="35" edge="1">
                    <mxGeometry x="-0.3333" y="10" relative="1" as="geometry">
                        <Array as="points">
                            <mxPoint x="480" y="140"/>
                        </Array>
                        <mxPoint as="offset"/>
                    </mxGeometry>
                </mxCell>
                <mxCell id="33" value="TIGERs = 51" style="text;html=1;strokeColor=#d79b00;fillColor=#ffe6cc;align=center;verticalAlign=middle;whiteSpace=wrap;rounded=0;" parent="1" vertex="1">
                    <mxGeometry x="360" y="120" width="80" height="40" as="geometry"/>
                </mxCell>
                <mxCell id="38" value="67" style="edgeStyle=none;html=1;exitX=1;exitY=0.5;exitDx=0;exitDy=0;entryX=0.5;entryY=1;entryDx=0;entryDy=0;elbow=vertical;" parent="1" source="35" target="37" edge="1">
                    <mxGeometry x="-0.3333" y="-10" relative="1" as="geometry">
                        <Array as="points">
                            <mxPoint x="560" y="180"/>
                        </Array>
                        <mxPoint as="offset"/>
                    </mxGeometry>
                </mxCell>
                <mxCell id="35" value="Dragons = -13" style="text;html=1;strokeColor=#d6b656;fillColor=#fff2cc;align=center;verticalAlign=middle;whiteSpace=wrap;rounded=0;" parent="1" vertex="1">
                    <mxGeometry x="440" y="160" width="80" height="40" as="geometry"/>
                </mxCell>
                <mxCell id="40" value="6" style="edgeStyle=none;html=1;exitX=1;exitY=0.5;exitDx=0;exitDy=0;entryX=0.5;entryY=0;entryDx=0;entryDy=0;elbow=vertical;" parent="1" source="37" target="39" edge="1">
                    <mxGeometry x="-0.3333" y="10" relative="1" as="geometry">
                        <Array as="points">
                            <mxPoint x="640" y="140"/>
                        </Array>
                        <mxPoint as="offset"/>
                    </mxGeometry>
                </mxCell>
                <mxCell id="37" value="ZJUNlict = 54" style="text;html=1;strokeColor=#d79b00;fillColor=#ffe6cc;align=center;verticalAlign=middle;whiteSpace=wrap;rounded=0;" parent="1" vertex="1">
                    <mxGeometry x="520" y="120" width="80" height="40" as="geometry"/>
                </mxCell>
                <mxCell id="41" value="&lt;font color=&quot;#ff6666&quot; style=&quot;font-size: 30px;&quot;&gt;0 != 48&lt;/font&gt;" style="edgeStyle=none;html=1;exitX=0.5;exitY=1;exitDx=0;exitDy=0;entryX=0.5;entryY=1;entryDx=0;entryDy=0;elbow=vertical;strokeColor=#FF6666;strokeWidth=2;dashed=1;" parent="1" source="39" target="18" edge="1">
                    <mxGeometry x="-0.05" y="-20" relative="1" as="geometry">
                        <Array as="points">
                            <mxPoint x="640" y="300"/>
                            <mxPoint x="80" y="300"/>
                        </Array>
                        <mxPoint as="offset"/>
                    </mxGeometry>
                </mxCell>
                <mxCell id="39" value="ER-Force= 48" style="text;html=1;strokeColor=#d6b656;fillColor=#fff2cc;align=center;verticalAlign=middle;whiteSpace=wrap;rounded=0;" parent="1" vertex="1">
                    <mxGeometry x="600" y="160" width="80" height="40" as="geometry"/>
                </mxCell>
                <mxCell id="44" value="&lt;div style=&quot;text-align: justify; line-height: 140%;&quot;&gt;&lt;span style=&quot;background-color: initial;&quot;&gt;Every line represents a match between two teams, with the winning team above the losing team. The number indicates how many more passes the winning team had over the losing team.&lt;/span&gt;&lt;/div&gt;" style="text;strokeColor=none;fillColor=none;align=left;verticalAlign=middle;rounded=0;fontSize=11;fontColor=#000000;spacing=2;html=1;whiteSpace=wrap;" parent="1" vertex="1">
                    <mxGeometry x="30" y="20" width="300" height="60" as="geometry"/>
                </mxCell>
                <mxCell id="45" value="&lt;div style=&quot;text-align: justify; line-height: 140%;&quot;&gt;&lt;span style=&quot;background-color: initial;&quot;&gt;As can be seen from the red line, there is an inequality within the match results. ER-Force is scored at both 0 and 48. Intuitively, we could score ER-Force at 24. This would however also affect the score of ZJUNLict and LUHBots, and etc. The code iteratively balances all this out.&amp;nbsp;&lt;/span&gt;&lt;/div&gt;" style="text;strokeColor=none;fillColor=none;align=left;verticalAlign=middle;rounded=0;fontSize=11;fontColor=#000000;spacing=2;html=1;whiteSpace=wrap;" vertex="1" parent="1">
                    <mxGeometry x="370" y="27" width="300" height="60" as="geometry"/>
                </mxCell>
                <mxCell id="46" value="" style="endArrow=none;html=1;" edge="1" parent="1">
                    <mxGeometry width="50" height="50" relative="1" as="geometry">
                        <mxPoint x="350" y="80" as="sourcePoint"/>
                        <mxPoint x="349.5" y="20" as="targetPoint"/>
                    </mxGeometry>
                </mxCell>
            </root>
        </mxGraphModel>
    </diagram>
</mxfile>